<svg xmlns="http://www.w3.org/2000/svg" viewBox="0 0 300 300"><g transform="translate(0, 300) scale(1, -1)"><path d="M262 225L263 225L238 225L238 275L244 275Q246 275 248 277Q250 279 250 281.50Q250 284 248 286Q246 288 244 288L244 288L6 288Q4 287 2 285.50Q0 284 0 281.50Q0 279 2 277Q4 275 6 275L6 275L13 275L13 69Q12 45 28.50 29Q45 13 69 13L69 13L181 13Q205 13 221.50 29Q238 45 238 69L238 69L238 100L263 100Q278 100 289 111Q300 122 300 137L300 137L300 188Q300 203 289 214Q278 225 262 225L262 225ZM225 275L225 69Q225 51 212 38Q199 25 181 25L181 25L69 25Q51 25 38 38Q25 51 25 69L25 69L25 213L181 213Q184 213 186 214.50Q188 216 188 218.50Q188 221 186 223Q184 225 181 225L181 225L25 225L25 275L225 275ZM288 188L288 138Q288 127 280.50 119.50Q273 112 263 112L263 112L238 112L238 213L263 213Q273 213 280.50 205.50Q288 198 288 188L288 188Z" fill="#b8794f"/></g></svg>